<?xml version="1.0" standalone="no"?>
<!DOCTYPE svg PUBLIC "-//W3C//DTD SVG 1.1//EN"
"http://www.w3.org/Graphics/SVG/1.1/DTD/svg11.dtd">
<svg width="27.496mm" height="28.7514mm" viewBox="-27.2462 -0.874283 27.496 28.7514" xmlns="http://www.w3.org/2000/svg" version = "1.1">
<title>1.123dx</title>
<desc> made with 123D Design </desc>
<path d="M -21.7955 25.7902 L -22.6813 25.2312 L -23.4773 24.5507 L -24.1769 23.7698 L -24.7732 22.9115 L -25.2594 21.9998 L -25.6292 21.0584 L -25.8766 20.1107 L -25.9964 19.1779 L -25.9845 18.279 L -25.8378 17.4295 L -25.7134 17.0271 L -25.5548 16.6411 L -25.3619 16.2725 L -25.1348 15.9221 L -24.8735 15.5905 L -24.5781 15.2782 L -23.8854 14.7128 L -23.0575 14.2276 L -22.0955 13.8233 L -21 13.5 L -22.0955 13.1766 L -23.0576 12.7722 L -23.8854 12.287 L -24.5782 11.7216 L -24.8736 11.4093 L -25.1349 11.0778 L -25.362 10.7274 L -25.5548 10.3589 L -25.7134 9.97297 L -25.8378 9.57058 L -25.9844 8.72124 L -25.9964 7.82259 L -25.8765 6.89006 L -25.6291 5.94253 L -25.2593 5.00146 L -24.773 4.08996 L -24.1767 3.23194 L -23.4771 2.45128 L -22.681 1.77097 L -21.7952 1.21221 L -20.8261 0.793485 L -19.7797 0.529771 L -18.6616 0.432597 L -17.4769 0.510408 L -16.23 0.769017 L -14.9251 1.21208 L -13.5656 1.84149 L -12.1546 2.65776 L -10.6947 3.66035 L -9.18796 4.84796 L -7.63621 6.21889 L -6.04072 7.77122 L -4.40248 9.50313 L -2.72212 11.4131 L -1 13.5 L -2.72218 15.5874 L -4.40259 17.4978 L -6.04088 19.2302 L -7.6364 20.7829 L -9.18819 22.1541 L -10.6949 23.342 L -12.1549 24.3448 L -13.5659 25.1612 L -14.9254 25.7907 L -16.2303 26.2338 L -17.4772 26.4924 L -18.6619 26.5702 L -19.78 26.4729 L -20.8264 26.2091 z  " fill= "none" stroke="rgb(0,0,255)" stroke-width="0.05mm" />
</svg>
