<?xml version="1.0" standalone="no"?>
<!DOCTYPE svg PUBLIC "-//W3C//DTD SVG 1.1//EN"
"http://www.w3.org/Graphics/SVG/1.1/DTD/svg11.dtd">
<svg width="27.5021mm" height="28.7432mm" viewBox="-27.252 -0.871081 27.5021 28.7432" xmlns="http://www.w3.org/2000/svg" version = "1.1">
<title>1.123dx</title>
<desc> made with 123D Design </desc>
<path d="M -25.6291 5.94253 L -25.726 6.29027 L -25.8497 6.76403 L -25.9126 7.10919 L -25.9725 7.57546 L -26.0005 7.91408 L -25.9945 8.36341 L -25.9869 8.69198 L -25.9431 9.00749 L -25.8698 9.43216 L -25.7894 9.73218 L -25.7272 9.93337 L -25.6479 10.1263 L -25.5308 10.4089 L -25.4343 10.5932 L -25.2804 10.8568 L -25.1668 11.032 L -24.976 11.2756 L -24.8454 11.4413 L -24.6977 11.5975 L -24.4702 11.8203 L -24.1239 12.103 L -23.8599 12.3045 L -23.5597 12.4843 L -23.1457 12.7269 L -22.8093 12.8851 L -22.3283 13.0872 L -21.956 13.2236 L -21.4082 13.3854 L -21 13.5 L -21.3582 13.5988 L -21.906 13.7605 L -22.2369 13.8759 L -22.7179 14.078 L -23.1399 14.2698 L -23.5538 14.5124 L -23.9206 14.7375 L -24.267 15.0202 L -24.5781 15.2782 L -24.7258 15.4344 L -24.9811 15.7246 L -25.1117 15.8904 L -25.2253 16.0656 L -25.4244 16.3869 L -25.5208 16.5712 L -25.6001 16.7642 L -25.7429 17.1146 L -25.8051 17.3159 L -25.8917 17.6925 L -25.965 18.1172 L -25.9959 18.5161 L -26.0019 18.9655 L -25.9765 19.394 L -25.9166 19.8603 L -25.8346 20.2999 L -25.7109 20.7738 L -25.5742 21.2162 L -25.3893 21.6869 L -25.2001 22.1233 L -24.957 22.5791 L -24.7178 22.9999 L -24.4197 23.429 L -24.1332 23.8243 L -23.7834 24.2148 L -23.4523 24.5751 L -23.0542 24.9153 L -22.6813 25.2312 L -22.2692 25.4942 L -21.8263 25.7737 L -21.3778 25.9761 L -20.8933 26.1855 L -20.4108 26.3211 L -19.8876 26.4531 L -19.3734 26.517 L -18.8144 26.5656 L -18.2706 26.5542 L -17.6782 26.5153 L -17.1067 26.4258 L -16.4833 26.2965 L -15.8859 26.1272 L -15.2334 25.9057 L -14.6115 25.6555 L -13.9317 25.3407 L -13.1927 24.9551 L -12.4872 24.5469 L -11.7197 24.0551 L -10.9898 23.5537 L -10.1952 22.9562 L -9.44185 22.3623 L -8.62136 21.6602 L -7.84547 20.9746 L -6.99992 20.169 L -6.20216 19.3926 L -5.33218 18.4847 L -4.51303 17.6185 L -3.61905 16.6091 L -2.77885 15.6539 L -2.29164 15.0656 L -1 13.5 L -1.55348 12.822 L -2.41454 11.7785 L -2.95948 11.1367 L -3.79966 10.1818 L -4.4246 9.47888 L -5.0378 8.82562 L -5.85692 7.95967 L -6.45824 7.35635 L -7.25599 6.58018 L -7.84527 6.02719 L -8.62114 5.34173 L -9.44162 4.6398 L -10.195 4.04599 L -10.9895 3.44869 L -11.7195 2.94739 L -12.4869 2.45568 L -13.1924 2.04754 L -13.9314 1.66202 L -14.6112 1.34731 L -15.1018 1.14392 L -15.7543 0.922387 L -16.23 0.769017 L -16.6902 0.665262 L -17.3136 0.535957 L -17.7573 0.481152 L -18.3497 0.442246 L -18.7762 0.43543 L -19.3352 0.484017 L -19.7435 0.523887 L -20.1326 0.608745 L -20.6558 0.740602 L -21.0247 0.868309 L -21.5093 1.07767 L -21.8567 1.2456 L -22.1816 1.45061 L -22.6245 1.72999 L -22.9255 1.96842 L -23.3235 2.30858 L -23.5993 2.57637 L -23.9491 2.9667 L -24.1982 3.25947 L -24.4195 3.57262 L -24.7177 4.00163 L -24.9098 4.33046 L -25.1529 4.78622 L -25.3144 5.12598 L -25.4993 5.59651 z  " fill= "none" stroke="rgb(0,0,255)" stroke-width="0.05mm" />
</svg>
